<mxfile host="app.diagrams.net" modified="2023-04-28T23:21:09.491Z" agent="Mozilla/5.0 (Windows NT 10.0; Win64; x64) AppleWebKit/537.36 (KHTML, like Gecko) Chrome/112.0.0.0 Safari/537.36" etag="m3kRAxcpV-Qpe_7-utuq" version="21.2.3" type="github">
  <diagram name="Página-1" id="bLatKVW36884dW2n8yO8">
    <mxGraphModel dx="1434" dy="796" grid="1" gridSize="10" guides="1" tooltips="1" connect="1" arrows="1" fold="1" page="1" pageScale="1" pageWidth="827" pageHeight="1169" math="0" shadow="0">
      <root>
        <mxCell id="0" />
        <mxCell id="1" parent="0" />
        <mxCell id="ncUliXZB64NYMQP4B4lU-28" value="" style="group" vertex="1" connectable="0" parent="1">
          <mxGeometry x="80" y="80" width="120" height="430" as="geometry" />
        </mxCell>
        <mxCell id="ncUliXZB64NYMQP4B4lU-1" value="INICIO" style="rounded=1;whiteSpace=wrap;html=1;" vertex="1" parent="ncUliXZB64NYMQP4B4lU-28">
          <mxGeometry width="120" height="60" as="geometry" />
        </mxCell>
        <mxCell id="ncUliXZB64NYMQP4B4lU-2" value="FIM" style="rounded=1;whiteSpace=wrap;html=1;" vertex="1" parent="ncUliXZB64NYMQP4B4lU-28">
          <mxGeometry y="370" width="120" height="60" as="geometry" />
        </mxCell>
        <mxCell id="ncUliXZB64NYMQP4B4lU-3" value="Usuário" style="shape=parallelogram;perimeter=parallelogramPerimeter;whiteSpace=wrap;html=1;fixedSize=1;rotation=0;" vertex="1" parent="ncUliXZB64NYMQP4B4lU-28">
          <mxGeometry y="130" width="120" height="60" as="geometry" />
        </mxCell>
        <mxCell id="ncUliXZB64NYMQP4B4lU-5" style="edgeStyle=orthogonalEdgeStyle;rounded=0;orthogonalLoop=1;jettySize=auto;html=1;entryX=0.5;entryY=0;entryDx=0;entryDy=0;" edge="1" parent="ncUliXZB64NYMQP4B4lU-28" source="ncUliXZB64NYMQP4B4lU-1" target="ncUliXZB64NYMQP4B4lU-3">
          <mxGeometry relative="1" as="geometry" />
        </mxCell>
        <mxCell id="ncUliXZB64NYMQP4B4lU-8" style="edgeStyle=orthogonalEdgeStyle;rounded=0;orthogonalLoop=1;jettySize=auto;html=1;" edge="1" parent="ncUliXZB64NYMQP4B4lU-28" source="ncUliXZB64NYMQP4B4lU-6" target="ncUliXZB64NYMQP4B4lU-2">
          <mxGeometry relative="1" as="geometry" />
        </mxCell>
        <mxCell id="ncUliXZB64NYMQP4B4lU-6" value="Inserir Usuário" style="rounded=0;whiteSpace=wrap;html=1;" vertex="1" parent="ncUliXZB64NYMQP4B4lU-28">
          <mxGeometry y="250" width="120" height="60" as="geometry" />
        </mxCell>
        <mxCell id="ncUliXZB64NYMQP4B4lU-7" style="edgeStyle=orthogonalEdgeStyle;rounded=0;orthogonalLoop=1;jettySize=auto;html=1;entryX=0.5;entryY=0;entryDx=0;entryDy=0;" edge="1" parent="ncUliXZB64NYMQP4B4lU-28" source="ncUliXZB64NYMQP4B4lU-3" target="ncUliXZB64NYMQP4B4lU-6">
          <mxGeometry relative="1" as="geometry" />
        </mxCell>
        <mxCell id="ncUliXZB64NYMQP4B4lU-32" value="" style="group" vertex="1" connectable="0" parent="1">
          <mxGeometry x="260" y="70" width="390" height="745" as="geometry" />
        </mxCell>
        <mxCell id="ncUliXZB64NYMQP4B4lU-12" value="INICIO" style="rounded=1;whiteSpace=wrap;html=1;" vertex="1" parent="ncUliXZB64NYMQP4B4lU-32">
          <mxGeometry x="160" width="120" height="60" as="geometry" />
        </mxCell>
        <mxCell id="ncUliXZB64NYMQP4B4lU-13" value="FIM" style="rounded=1;whiteSpace=wrap;html=1;" vertex="1" parent="ncUliXZB64NYMQP4B4lU-32">
          <mxGeometry x="161" y="685" width="120" height="60" as="geometry" />
        </mxCell>
        <mxCell id="ncUliXZB64NYMQP4B4lU-15" value="Usuário" style="shape=parallelogram;perimeter=parallelogramPerimeter;whiteSpace=wrap;html=1;fixedSize=1;rotation=0;" vertex="1" parent="ncUliXZB64NYMQP4B4lU-32">
          <mxGeometry x="161" y="360" width="120" height="60" as="geometry" />
        </mxCell>
        <mxCell id="ncUliXZB64NYMQP4B4lU-17" value="Inserir Usuário" style="rounded=0;whiteSpace=wrap;html=1;" vertex="1" parent="ncUliXZB64NYMQP4B4lU-32">
          <mxGeometry x="161" y="485" width="120" height="60" as="geometry" />
        </mxCell>
        <mxCell id="ncUliXZB64NYMQP4B4lU-14" style="edgeStyle=orthogonalEdgeStyle;rounded=0;orthogonalLoop=1;jettySize=auto;html=1;entryX=0.5;entryY=0;entryDx=0;entryDy=0;" edge="1" parent="ncUliXZB64NYMQP4B4lU-32" source="ncUliXZB64NYMQP4B4lU-15" target="ncUliXZB64NYMQP4B4lU-17">
          <mxGeometry relative="1" as="geometry" />
        </mxCell>
        <mxCell id="ncUliXZB64NYMQP4B4lU-18" value="Quantidade de Usuários" style="shape=parallelogram;perimeter=parallelogramPerimeter;whiteSpace=wrap;html=1;fixedSize=1;rotation=0;" vertex="1" parent="ncUliXZB64NYMQP4B4lU-32">
          <mxGeometry x="160" y="100" width="120" height="60" as="geometry" />
        </mxCell>
        <mxCell id="ncUliXZB64NYMQP4B4lU-19" style="edgeStyle=orthogonalEdgeStyle;rounded=0;orthogonalLoop=1;jettySize=auto;html=1;entryX=0.5;entryY=0;entryDx=0;entryDy=0;" edge="1" parent="ncUliXZB64NYMQP4B4lU-32" source="ncUliXZB64NYMQP4B4lU-12" target="ncUliXZB64NYMQP4B4lU-18">
          <mxGeometry relative="1" as="geometry" />
        </mxCell>
        <mxCell id="ncUliXZB64NYMQP4B4lU-21" style="edgeStyle=orthogonalEdgeStyle;rounded=0;orthogonalLoop=1;jettySize=auto;html=1;" edge="1" parent="ncUliXZB64NYMQP4B4lU-32" target="ncUliXZB64NYMQP4B4lU-15">
          <mxGeometry relative="1" as="geometry">
            <mxPoint x="221" y="320" as="sourcePoint" />
          </mxGeometry>
        </mxCell>
        <mxCell id="ncUliXZB64NYMQP4B4lU-23" style="edgeStyle=orthogonalEdgeStyle;rounded=0;orthogonalLoop=1;jettySize=auto;html=1;entryX=0.5;entryY=0;entryDx=0;entryDy=0;" edge="1" parent="ncUliXZB64NYMQP4B4lU-32" source="ncUliXZB64NYMQP4B4lU-20" target="ncUliXZB64NYMQP4B4lU-13">
          <mxGeometry relative="1" as="geometry">
            <mxPoint x="410" y="700" as="targetPoint" />
            <Array as="points">
              <mxPoint x="390" y="255" />
              <mxPoint x="390" y="600" />
              <mxPoint x="221" y="600" />
            </Array>
          </mxGeometry>
        </mxCell>
        <mxCell id="ncUliXZB64NYMQP4B4lU-20" value="i &amp;lt; Quantidade de Usuários" style="rhombus;whiteSpace=wrap;html=1;" vertex="1" parent="ncUliXZB64NYMQP4B4lU-32">
          <mxGeometry x="155" y="190" width="130" height="130" as="geometry" />
        </mxCell>
        <mxCell id="ncUliXZB64NYMQP4B4lU-22" style="edgeStyle=orthogonalEdgeStyle;rounded=0;orthogonalLoop=1;jettySize=auto;html=1;entryX=0.5;entryY=0;entryDx=0;entryDy=0;" edge="1" parent="ncUliXZB64NYMQP4B4lU-32" source="ncUliXZB64NYMQP4B4lU-18" target="ncUliXZB64NYMQP4B4lU-20">
          <mxGeometry relative="1" as="geometry" />
        </mxCell>
        <mxCell id="ncUliXZB64NYMQP4B4lU-24" value="NÃO" style="text;html=1;align=center;verticalAlign=middle;resizable=0;points=[];autosize=1;strokeColor=none;fillColor=none;" vertex="1" parent="ncUliXZB64NYMQP4B4lU-32">
          <mxGeometry x="285" y="230" width="50" height="30" as="geometry" />
        </mxCell>
        <mxCell id="ncUliXZB64NYMQP4B4lU-27" value="SIM" style="text;html=1;align=center;verticalAlign=middle;resizable=0;points=[];autosize=1;strokeColor=none;fillColor=none;" vertex="1" parent="ncUliXZB64NYMQP4B4lU-32">
          <mxGeometry x="220" y="310" width="40" height="30" as="geometry" />
        </mxCell>
        <mxCell id="ncUliXZB64NYMQP4B4lU-31" style="edgeStyle=orthogonalEdgeStyle;rounded=0;orthogonalLoop=1;jettySize=auto;html=1;entryX=0;entryY=0.5;entryDx=0;entryDy=0;" edge="1" parent="ncUliXZB64NYMQP4B4lU-32" source="ncUliXZB64NYMQP4B4lU-29" target="ncUliXZB64NYMQP4B4lU-20">
          <mxGeometry relative="1" as="geometry">
            <Array as="points">
              <mxPoint x="60" y="255" />
            </Array>
          </mxGeometry>
        </mxCell>
        <mxCell id="ncUliXZB64NYMQP4B4lU-29" value="i++" style="rounded=0;whiteSpace=wrap;html=1;" vertex="1" parent="ncUliXZB64NYMQP4B4lU-32">
          <mxGeometry y="360" width="120" height="60" as="geometry" />
        </mxCell>
        <mxCell id="ncUliXZB64NYMQP4B4lU-30" style="edgeStyle=orthogonalEdgeStyle;rounded=0;orthogonalLoop=1;jettySize=auto;html=1;entryX=0.5;entryY=1;entryDx=0;entryDy=0;" edge="1" parent="ncUliXZB64NYMQP4B4lU-32" source="ncUliXZB64NYMQP4B4lU-17" target="ncUliXZB64NYMQP4B4lU-29">
          <mxGeometry relative="1" as="geometry" />
        </mxCell>
        <mxCell id="ncUliXZB64NYMQP4B4lU-33" value="" style="group" vertex="1" connectable="0" parent="1">
          <mxGeometry x="730" y="70" width="120" height="430" as="geometry" />
        </mxCell>
        <mxCell id="ncUliXZB64NYMQP4B4lU-34" value="INICIO" style="rounded=1;whiteSpace=wrap;html=1;" vertex="1" parent="ncUliXZB64NYMQP4B4lU-33">
          <mxGeometry width="120" height="60" as="geometry" />
        </mxCell>
        <mxCell id="ncUliXZB64NYMQP4B4lU-35" value="FIM" style="rounded=1;whiteSpace=wrap;html=1;" vertex="1" parent="ncUliXZB64NYMQP4B4lU-33">
          <mxGeometry y="370" width="120" height="60" as="geometry" />
        </mxCell>
        <mxCell id="ncUliXZB64NYMQP4B4lU-36" value="id do Usuário" style="shape=parallelogram;perimeter=parallelogramPerimeter;whiteSpace=wrap;html=1;fixedSize=1;rotation=0;" vertex="1" parent="ncUliXZB64NYMQP4B4lU-33">
          <mxGeometry y="130" width="120" height="60" as="geometry" />
        </mxCell>
        <mxCell id="ncUliXZB64NYMQP4B4lU-37" style="edgeStyle=orthogonalEdgeStyle;rounded=0;orthogonalLoop=1;jettySize=auto;html=1;entryX=0.5;entryY=0;entryDx=0;entryDy=0;" edge="1" parent="ncUliXZB64NYMQP4B4lU-33" source="ncUliXZB64NYMQP4B4lU-34" target="ncUliXZB64NYMQP4B4lU-36">
          <mxGeometry relative="1" as="geometry" />
        </mxCell>
        <mxCell id="ncUliXZB64NYMQP4B4lU-38" style="edgeStyle=orthogonalEdgeStyle;rounded=0;orthogonalLoop=1;jettySize=auto;html=1;" edge="1" parent="ncUliXZB64NYMQP4B4lU-33" source="ncUliXZB64NYMQP4B4lU-39" target="ncUliXZB64NYMQP4B4lU-35">
          <mxGeometry relative="1" as="geometry" />
        </mxCell>
        <mxCell id="ncUliXZB64NYMQP4B4lU-39" value="Remover Usuário" style="rounded=0;whiteSpace=wrap;html=1;" vertex="1" parent="ncUliXZB64NYMQP4B4lU-33">
          <mxGeometry y="250" width="120" height="60" as="geometry" />
        </mxCell>
        <mxCell id="ncUliXZB64NYMQP4B4lU-40" style="edgeStyle=orthogonalEdgeStyle;rounded=0;orthogonalLoop=1;jettySize=auto;html=1;entryX=0.5;entryY=0;entryDx=0;entryDy=0;" edge="1" parent="ncUliXZB64NYMQP4B4lU-33" source="ncUliXZB64NYMQP4B4lU-36" target="ncUliXZB64NYMQP4B4lU-39">
          <mxGeometry relative="1" as="geometry" />
        </mxCell>
      </root>
    </mxGraphModel>
  </diagram>
</mxfile>
